<?xml version="1.0" encoding="UTF-8" standalone="no"?>
<svg
   xmlns:dc="http://purl.org/dc/elements/1.1/"
   xmlns:cc="http://creativecommons.org/ns#"
   xmlns:rdf="http://www.w3.org/1999/02/22-rdf-syntax-ns#"
   xmlns:svg="http://www.w3.org/2000/svg"
   xmlns="http://www.w3.org/2000/svg"
   xmlns:sodipodi="http://sodipodi.sourceforge.net/DTD/sodipodi-0.dtd"
   xmlns:inkscape="http://www.inkscape.org/namespaces/inkscape"
   version="1.0"
   width="132.000000pt"
   height="60.000000pt"
   viewBox="0 0 132.000000 60.000000"
   preserveAspectRatio="xMidYMid meet"
   id="svg24"
   sodipodi:docname="logo2.svg"
   inkscape:version="0.92.1 r15371">
  <metadata
     id="metadata30">
    <rdf:RDF>
      <cc:Work
         rdf:about="">
        <dc:format>image/svg+xml</dc:format>
        <dc:type
           rdf:resource="http://purl.org/dc/dcmitype/StillImage" />
      </cc:Work>
    </rdf:RDF>
  </metadata>
  <defs
     id="defs28" />
  <sodipodi:namedview
     pagecolor="#ffffff"
     bordercolor="#666666"
     borderopacity="1"
     objecttolerance="10"
     gridtolerance="10"
     guidetolerance="10"
     inkscape:pageopacity="0"
     inkscape:pageshadow="2"
     inkscape:window-width="1920"
     inkscape:window-height="969"
     id="namedview26"
     showgrid="false"
     inkscape:zoom="1.2585227"
     inkscape:cx="-94.32361"
     inkscape:cy="14.586262"
     inkscape:window-x="0"
     inkscape:window-y="42"
     inkscape:window-maximized="1"
     inkscape:current-layer="svg24" />
  <path
     style="fill:#000000;stroke-width:0.1912262"
     d="M 10.515782,58.486673 C 6.1663118,58.233143 2.5752189,57.300367 1.6317041,56.179055 1.0409417,55.476974 1.0215522,55.075323 1.5462301,54.408303 2.124886,53.672656 3.1738652,53.200561 5.3997461,52.674017 9.9588791,51.595526 16.253147,51.523439 21.128841,52.493874 c 0.841392,0.167466 1.593928,0.364823 1.672303,0.438573 0.07836,0.07375 -0.825175,0.367537 -2.007877,0.652862 -2.098487,0.506257 -2.173433,0.511102 -3.1065,0.200902 -1.226577,-0.407781 -6.172723,-0.474119 -7.7806722,-0.104351 -1.3933669,0.320421 -2.3543161,0.954499 -2.3543161,1.553488 0,0.611782 0.7037902,1.085321 2.1991041,1.479655 1.7401822,0.458908 6.3050522,0.456863 8.0297872,-0.0036 2.109031,-0.563059 1.836921,-0.698136 -1.406355,-0.698136 h -3.014368 l 0.05993,-0.621485 0.05993,-0.621485 h 6.214851 6.214851 l 0.06258,0.441549 c 0.09401,0.663271 -1.061438,1.645133 -2.498936,2.123502 -2.261198,0.752478 -4.048805,0.997235 -9.037223,1.237364 -0.736215,0.03544 -2.500282,-0.0033 -3.920137,-0.08604 z m 47.232876,-2.001822 c -1.945727,-1.199167 -3.602223,-2.183074 -3.681105,-2.186459 -0.07888,-0.0034 -0.143419,0.940414 -0.143419,2.097332 v 2.103488 H 48.029453 42.134777 L 41.685654,58.021147 41.236539,57.543082 H 36.834324 32.43211 l -0.503966,0.482836 c -0.502997,0.481897 -0.5102,0.482734 -3.707943,0.430259 l -3.203968,-0.05258 4.010859,-3.203039 4.010859,-3.20304 3.797984,2.56e-4 3.797976,2.55e-4 3.705418,2.963672 c 2.037983,1.629923 3.737507,2.963575 3.776719,2.963575 0.03921,0 0.0713,-0.770974 0.0713,-1.713274 v -1.713273 l -2.246908,-1.202927 -2.246909,-1.202925 6.063447,-0.05049 6.063444,-0.05049 2.790949,1.727747 2.790949,1.727744 2.947107,-1.72507 2.947107,-1.725072 h 11.392245 11.392245 l 4.390629,1.986792 4.390637,1.986792 v -1.986792 -1.986792 h 3.05962 3.05962 v 3.250846 3.250845 h -3.02638 -3.026375 l -4.191518,-1.824779 c -2.305338,-1.00363 -4.385541,-1.873477 -4.622678,-1.932994 -0.426079,-0.106941 -0.431143,-0.0855 -0.431143,1.824783 v 1.93299 h -3.059621 -3.059621 v -2.002964 -2.002964 l -0.564178,-0.29175 c -0.310303,-0.160462 -0.611481,-0.29175 -0.669297,-0.29175 -0.05777,0 -0.105104,1.032621 -0.105104,2.294714 v 2.294714 H 79.07038 75.915147 v -2.002964 -2.002964 l -0.564183,-0.29175 c -0.310299,-0.160462 -0.611481,-0.29175 -0.669292,-0.29175 -0.05781,0 -0.105108,1.032621 -0.105108,2.294714 v 2.294714 h -2.868393 -2.868393 v -2.103488 c 0,-1.156919 -0.03786,-2.103488 -0.08413,-2.103488 -0.04627,0 -1.72945,0.989596 -3.740395,2.199101 -2.010947,1.209506 -3.672609,2.193413 -3.692589,2.186458 -0.01999,-0.007 -1.628281,-0.99378 -3.574007,-2.192944 z M 38.524439,55.043266 c -1.729534,-1.759634 -1.614023,-1.75269 -3.207206,-0.192723 l -1.376236,1.347537 2.862408,0.0032 2.862401,0.0032 -1.141367,-1.161233 z m 76.592081,3.443407 c -4.34947,-0.25353 -7.94056,-1.186306 -8.88409,-2.307618 -0.59489,-0.706981 -0.61029,-1.103551 -0.0695,-1.790966 1.81006,-2.301114 12.5876,-3.336739 19.66232,-1.889369 0.78881,0.161378 1.49832,0.355153 1.5767,0.430614 0.0784,0.07547 -0.82518,0.37065 -2.00788,0.655975 -2.09849,0.506257 -2.17344,0.511102 -3.1065,0.200902 -1.22658,-0.407781 -6.17273,-0.474119 -7.78067,-0.104351 -1.39337,0.320421 -2.35432,0.954499 -2.35432,1.553488 0,0.611782 0.70379,1.085321 2.1991,1.479655 1.74019,0.458908 6.30506,0.456863 8.0298,-0.0036 2.10902,-0.563059 1.83691,-0.698136 -1.40636,-0.698136 h -3.01437 l 0.0599,-0.621485 0.0599,-0.621485 h 6.21485 6.21485 l 0.0626,0.441549 c 0.094,0.663271 -1.06145,1.645133 -2.49895,2.123502 -2.2612,0.752478 -4.0488,0.997235 -9.03722,1.237364 -0.73622,0.03544 -2.50028,-0.0033 -3.92014,-0.08604 z M 6.1175817,47.694932 V 45.304604 H 3.6316414 1.145701 v -0.669291 -0.669292 h 7.7446572 7.7446658 v 0.669292 0.669291 h -2.485941 -2.48594 v 2.390328 2.390328 H 8.8903582 6.1175817 Z m 7.6490483,2.314674 c 0,-0.04161 1.676333,-1.418437 3.725192,-3.05962 l 3.725185,-2.983965 h 3.424264 3.424263 l 3.459084,2.77278 c 1.902501,1.525029 3.504145,2.77278 3.559213,2.77278 0.05504,0 0.09911,-0.709926 0.09787,-1.577617 l -0.0024,-1.577616 -2.10122,-1.110973 c -1.15565,-0.611036 -2.1012,-1.147313 -2.1012,-1.191729 0,-0.04442 5.851522,-0.07766 13.003382,-0.07388 l 13.003386,0.0069 v 2.380022 2.380024 h 2.677166 2.677167 v 0.669292 0.669291 h -5.54556 -5.54556 v -1.876856 -1.876845 l -0.692978,-0.330457 c -0.659955,-0.314712 -0.710872,-0.314121 -1.068435,0.01239 -0.206501,0.188564 -0.776691,0.479427 -1.267087,0.64636 l -0.891637,0.303514 1.000384,0.132861 c 0.625735,0.0831 1.195071,0.300323 1.520238,0.58002 0.505841,0.435109 0.511107,0.460514 0.195333,0.942444 -0.73707,1.12491 -3.80226,1.449416 -13.789023,1.459811 l -6.483643,0.0067 -0.626777,-0.478066 c -0.622339,-0.474679 -0.655052,-0.478066 -4.621949,-0.478066 h -3.995179 l -0.449115,0.478066 c -0.441175,0.469603 -0.500994,0.478066 -3.379796,0.478066 -1.611867,-3e-6 -2.930673,-0.03404 -2.930673,-0.07566 z m 30.707673,-1.67452 c 0.293334,-0.293696 0.283679,-0.333407 -0.136977,-0.563102 -0.248914,-0.135919 -1.248546,-0.283663 -2.22141,-0.328318 l -1.768842,-0.08119 v 0.71002 0.710021 l 1.905818,-0.06572 c 1.453379,-0.05012 1.980741,-0.14074 2.221411,-0.381703 z M 26.09186,46.747893 c -0.731344,-0.678631 -1.403694,-1.237968 -1.494104,-1.24297 -0.0904,-0.005 -0.73579,0.548715 -1.434197,1.23048 l -1.269819,1.239569 2.763924,0.0034 2.763931,0.0034 -1.329735,-1.233878 z m 17.998194,-0.706112 c 0.525912,-0.525915 -0.155372,-0.824746 -2.050999,-0.899622 l -1.691981,-0.06684 v 0.711711 0.711708 l 1.725504,-0.0825 c 1.203823,-0.05755 1.813782,-0.17077 2.017476,-0.374465 z m 19.331647,3.915995 c -0.07011,-0.07012 -0.127484,-0.91653 -0.127484,-1.880919 v -1.75344 l -1.864455,-0.984339 c -1.025452,-0.541386 -1.993533,-1.070481 -2.151295,-1.175768 -0.193641,-0.129233 2.431408,-0.192383 8.079307,-0.194362 l 8.366146,-0.003 v 0.573679 0.573678 h -3.346458 -3.346459 v 0.669292 0.669291 h 3.346459 3.346458 v 0.573679 0.573679 h -3.346458 -3.346459 v 0.573679 0.573678 h 3.346459 3.346458 v 0.669292 0.669291 h -6.087367 c -3.348052,0 -6.144735,-0.05737 -6.214852,-0.127484 z m 17.784035,0 c -0.07011,-0.07012 -0.127482,-1.145764 -0.127482,-2.390328 v -2.262844 h -2.390327 -2.390328 v -0.669291 -0.669292 h 7.756781 7.756771 l -0.05993,0.621485 -0.05993,0.621485 -2.438131,0.05352 -2.438132,0.05352 v 2.384616 2.384614 h -2.740912 c -1.507501,0 -2.79828,-0.05737 -2.868394,-0.127484 z m 16.840209,-0.166548 c -5.756723,-0.784645 -7.981522,-2.883409 -4.665207,-4.400913 2.225593,-1.018405 5.041082,-1.424294 9.879752,-1.424294 4.83718,0 8.10602,0.494707 10.1462,1.535526 2.26002,1.152974 1.43084,2.728502 -1.9538,3.712442 -2.85827,0.830925 -9.46027,1.115175 -13.406945,0.577239 z m 9.145915,-1.504693 c 1.22083,-0.3759 1.92442,-1.063674 1.63719,-1.600378 -0.47277,-0.88338 -2.48073,-1.381553 -5.56856,-1.381553 -3.08782,0 -5.095781,0.498173 -5.568548,1.381553 -0.402668,0.752376 0.986621,1.600365 3.178228,1.939921 1.1702,0.181306 5.36116,-0.04379 6.32169,-0.339543 z m 8.45745,-0.06573 -0.0547,-1.864455 -2.1991,-1.20147 -2.1991,-1.201468 8.0315,0.07402 c 8.34355,0.0769 9.21206,0.154384 10.75081,0.959081 0.75405,0.39434 1.01572,0.851541 0.80564,1.407627 -0.36844,0.975281 -2.11811,1.410309 -6.29773,1.565834 l -3.15523,0.117407 -0.0578,1.003938 -0.0578,1.003938 h -2.75586 -2.75586 z m 9.03014,-1.769709 c 0.50746,-0.271587 0.48303,-0.734729 -0.0494,-0.936741 -0.23664,-0.08978 -1.07564,-0.195214 -1.86445,-0.234298 l -1.4342,-0.07107 -0.0602,0.842012 -0.0602,0.842015 1.54386,-0.119054 c 0.84912,-0.06548 1.71523,-0.210772 1.92468,-0.322869 z M 22.945492,38.038008 V 33.831033 H 12.045596 1.145701 V 29.807097 25.783161 L 10.181137,13.553923 19.216573,1.3246835 28.060791,1.3235635 36.905,1.3224435 V 13.465304 25.608168 h 2.48594 2.485941 v 4.111363 4.111364 H 39.39094 36.905 v 4.206976 4.206976 h -6.979758 -6.97975 z m 0.486564,-12.669737 c 0.05064,-0.132018 0.06947,-3.272811 0.04182,-6.979542 l -0.05032,-6.739507 -4.971881,6.719988 c -2.734534,3.695993 -5.040697,6.836787 -5.124801,6.979543 -0.12721,0.215914 0.701715,0.259553 4.930073,0.259553 3.901309,0 5.10441,-0.0558 5.17511,-0.240035 z M 43.789141,21.799326 V 1.3225779 l 11.808222,5.617e-4 c 12.006812,5.857e-4 14.408154,0.1014014 18.309909,0.7681016 3.060002,0.5228695 5.26026,1.2050349 7.713423,2.3914599 5.415491,2.6191004 9.575249,6.5837819 11.30254,10.7725099 0.955036,2.316 1.217836,3.937988 1.115352,6.884024 -0.07996,2.299557 -0.164883,2.829109 -0.716874,4.471676 -2.251456,6.699736 -9.432753,12.43895 -18.094032,14.460552 -3.960048,0.924303 -5.707277,1.027382 -18.961027,1.118625 l -12.477513,0.0859 V 21.799233 Z m 22.014283,11.647548 c 1.117125,-0.105936 2.704091,-0.364724 3.526588,-0.575086 5.349331,-1.368127 8.734749,-5.317873 9.012066,-10.514327 C 78.698251,15.683471 74.606132,11.398767 66.736289,10.205469 65.737132,10.053968 63.650377,9.9295046 62.099053,9.9288846 l -2.820586,-0.0011 V 21.656324 c 0,6.450698 0.05737,11.785909 0.127484,11.856025 0.192506,0.192506 4.098707,0.152545 6.397473,-0.06545 z M 97.141257,29.879233 V 17.513481 L 91.251356,9.6570613 C 88.011902,5.3360315 85.296196,1.6930789 85.216443,1.561611 85.100755,1.370909 89.694148,1.3225779 107.93424,1.3225779 h 22.86283 V 5.5295546 9.736531 h -9.08325 -9.08324 v 3.824524 3.824524 h 9.08324 9.08325 v 4.206977 4.206976 h -9.08325 -9.08324 v 8.222727 8.222726 h -7.74467 -7.744653 z"
     id="path315"
     inkscape:connector-curvature="0" />
</svg>
